<svg width="32" height="32" viewBox="0 0 32 32" fill="none" xmlns="http://www.w3.org/2000/svg">
<path fill-rule="evenodd" clip-rule="evenodd" d="M24.9645 7.01652C24.5856 7.08393 24.0483 7.26023 23.1881 7.54696L13.2686 10.8535C11.3642 11.4883 10.018 11.9386 9.1071 12.3573C8.12403 12.8092 8.02745 13.0648 8.02012 13.0946C7.98157 13.2515 7.98157 13.4153 8.02012 13.5721C8.02745 13.6019 8.12403 13.8575 9.1071 14.3094C10.018 14.7282 11.3642 15.1784 13.2686 15.8133C13.3117 15.8276 13.3545 15.8418 13.397 15.8559C14.0188 16.0622 14.5689 16.2446 15.0088 16.6121C15.1462 16.7269 15.2731 16.8538 15.3879 16.9912C15.7554 17.4312 15.9379 17.9812 16.1441 18.603C16.1582 18.6455 16.1724 18.6883 16.1868 18.7314C16.8216 20.6358 17.2719 21.982 17.6906 22.8929C18.1425 23.876 18.3981 23.9726 18.4279 23.9799C18.5847 24.0184 18.7486 24.0184 18.9054 23.9799C18.9352 23.9726 19.1908 23.876 19.6427 22.8929C20.0615 21.982 20.5117 20.6358 21.1465 18.7314L24.4531 8.81187C24.7398 7.95169 24.9161 7.41447 24.9835 7.03556C24.9849 7.02768 24.9862 7.02 24.9875 7.01253C24.98 7.01379 24.9723 7.01512 24.9645 7.01652ZM25.2234 6.99341C25.2232 6.99359 25.2199 6.99332 25.2142 6.99206C25.2208 6.99259 25.2236 6.99323 25.2234 6.99341ZM25.008 6.78583C25.0067 6.78009 25.0064 6.7768 25.0066 6.7766C25.0068 6.77639 25.0074 6.77925 25.008 6.78583ZM24.6142 5.04744C25.1652 4.94942 25.9197 4.92023 26.4997 5.50029C27.0798 6.08035 27.0506 6.83485 26.9526 7.38585C26.8563 7.92729 26.6298 8.60642 26.3743 9.37273L26.3504 9.44432L23.0439 19.3639L23.0223 19.4288C22.4139 21.2539 21.9301 22.7054 21.4599 23.7282C21.0174 24.691 20.4241 25.6661 19.3828 25.9221C18.9124 26.0377 18.4209 26.0377 17.9505 25.9221C16.9092 25.6661 16.3159 24.691 15.8734 23.7282C15.4032 22.7054 14.9194 21.2539 14.311 19.4288L14.2894 19.3639C14.0144 18.5388 13.9458 18.3846 13.853 18.2734C13.8147 18.2276 13.7724 18.1853 13.7266 18.147C13.6155 18.0542 13.4613 17.9857 12.6361 17.7106L12.5711 17.689C10.7461 17.0806 9.29457 16.5968 8.27178 16.1266C7.30901 15.6841 6.33393 15.0908 6.07794 14.0495C5.9623 13.5791 5.9623 13.0876 6.07794 12.6172C6.33393 11.5759 7.30901 10.9826 8.27178 10.5401C9.29458 10.0699 10.7461 9.5861 12.5712 8.97776L12.6361 8.95611L22.5557 5.64959L22.6273 5.62572C23.3936 5.3702 24.0727 5.14375 24.6142 5.04744Z" fill="#2F2F2F"/>
</svg>
